# xmcd
#
# Track frame offsets:
#	150
#	13662
#	28120
#	50150
#	65795
#	78150
#	88355
#	98167
#	118100
#	126287
#	138980
#	150920
#
# Disc length: 2188
#
# Revision: 1
# Processed by: cddbd v1.5.1PL0 Copyright (c) Steve Scherf et al.
# Submitted via: ExactAudioCopy v0.95a3
# Normalized: r0:DSETVAR1,TDELIM( - )
#
DISCID=a2088a0c
DTITLE=Various Artist - Rocky Top Album
DYEAR=2001
DGENRE=Country
TTITLE0=The Osborne Brothers - Rocky Top
TTITLE1=Charlie Daniels - Volun-Tears
TTITLE2=GrooveGrass Boyz featuring Mac Wiseman - Rocky Top Slide
TTITLE3=Wheeler - Climb On Up (To Old Rocky Top)
TTITLE4=GrooveGrass Boyz featuring Del McCoury and Mac Wiseman - GrooveGrass Girlz
TTITLE5=Re-Mixed by Scott Rouse - Rocky Top (GrooveGrass-A-Pella Mix)
TTITLE6=Popeye Dropsy - We Need A Touch Down
TTITLE7=GrooveGrass Boyz featuring Del McCoury and Mac Wiseman - Barnyard Stomp
TTITLE8=GrooveGrass Boyz featuring Mac Wiseman - Get Hot Or Go Home
TTITLE9=Popeye Dropsy - We Need Some Defense
TTITLE10=Re-Mixed by Scott Rouse - Rocky Top (GrooveGrass Radio Mix)
TTITLE11=The Osborne Brothers - Osborne Interview (History Of Rocky Top)
EXTD=
EXTT0=
EXTT1=
EXTT2=
EXTT3=
EXTT4=
EXTT5=
EXTT6=
EXTT7=
EXTT8=
EXTT9=
EXTT10=
EXTT11=
PLAYORDER=
